<svg width="500" xmlns="http://www.w3.org/2000/svg" height="500" id="screenshot-395f77cd-2afe-8096-8006-21e7329c5e14" viewBox="0 0 500 500" xmlns:xlink="http://www.w3.org/1999/xlink" fill="none" version="1.1"><g id="shape-395f77cd-2afe-8096-8006-21e7329c5e14"><defs><clipPath id="frame-clip-395f77cd-2afe-8096-8006-21e7329c5e14-render-1" class="frame-clip frame-clip-def"><rect rx="0" ry="0" x="0" y="0" width="499.99999999999994" height="500" transform="matrix(1.000000, 0.000000, 0.000000, 1.000000, 0.000000, 0.000000)"/></clipPath></defs><g><g><g clip-path="url(#frame-clip-395f77cd-2afe-8096-8006-21e7329c5e14-render-1)" fill="none"><g class="fills" id="fills-395f77cd-2afe-8096-8006-21e7329c5e14"><rect width="499.99999999999994" height="500" class="frame-background" x="0" transform="matrix(1.000000, 0.000000, 0.000000, 1.000000, 0.000000, 0.000000)" style="fill: rgb(255, 255, 255); fill-opacity: 1;" ry="0" rx="0" y="0"/></g><g class="frame-children"><g id="shape-395f77cd-2afe-8096-8006-21e80f4afae1" style="display: none;"><g class="fills" id="fills-395f77cd-2afe-8096-8006-21e80f4afae1"><ellipse cx="250" cy="250" rx="112.50000000000001" ry="112.5" transform="matrix(1.000000, 0.000000, 0.000000, 1.000000, 0.000000, 0.000000)" style="fill: rgb(177, 178, 181); fill-opacity: 1;"/></g></g><g id="shape-395f77cd-2afe-8096-8006-21e8c0276307" style="display: none;"><g class="fills" id="fills-395f77cd-2afe-8096-8006-21e8c0276307"><rect rx="0" ry="0" x="337" y="250" transform="matrix(1.000000, 0.000000, 0.000000, 1.000000, 0.000000, 0.000000)" width="25" height="25" style="fill: rgb(136, 136, 0); fill-opacity: 1;"/></g></g><g id="shape-395f77cd-2afe-8096-8006-21ebb45d6e6d"><g><g><g fill="none"><g class="fills" id="fills-395f77cd-2afe-8096-8006-21ebb45d6e6d"><rect rx="0" ry="0" x="63" y="76" width="374" height="348.9519052838329" transform="matrix(1.000000, 0.000000, 0.000000, 1.000000, 0.000000, 0.000000)" class="frame-background"/></g><g class="frame-children"><g id="shape-395f77cd-2afe-8096-8006-21e75ffdae5f" width="160" height="160" rx="0" ry="0" style="fill: rgb(0, 0, 0);"><g id="shape-395f77cd-2afe-8096-8006-21e75fff2c80" style="display: none;"><g class="fills" id="fills-395f77cd-2afe-8096-8006-21e75fff2c80"><rect width="200.00000000000003" height="200" x="149.99999999999997" transform="matrix(1.000000, 0.000000, 0.000000, 1.000000, 0.000000, 0.000000)" style="fill: rgb(75, 64, 59); fill-opacity: 1;" ry="0" fill="none" rx="0" y="150"/></g></g><g id="shape-395f77cd-2afe-8096-8006-21e75fff592d"><g class="fills" id="fills-395f77cd-2afe-8096-8006-21e75fff592d"><path d="M250.000,150.000L336.603,200.000L336.603,300.000L250.000,350.000L163.397,300.000L163.397,200.000Z" style="fill: rgb(75, 64, 59); fill-opacity: 1;"/></g></g></g><g id="shape-395f77cd-2afe-8096-8006-21e7e44545bd"><g class="fills" id="fills-395f77cd-2afe-8096-8006-21e7e44545bd"><rect rx="0" ry="0" x="362" y="225" transform="matrix(1.000000, 0.000000, 0.000000, 1.000000, 0.000000, 0.000000)" width="75" height="50" style="fill: rgb(245, 100, 31); fill-opacity: 1;"/></g></g><g id="shape-395f77cd-2afe-8096-8006-21e9154af646"><g class="fills" id="fills-395f77cd-2afe-8096-8006-21e9154af646"><rect rx="0" ry="0" x="286.90063509461095" y="354.9759526419165" transform="matrix(0.500000, 0.866025, -0.866025, 0.500000, 491.269145, -90.951215)" width="74.99999999999996" height="49.99999999999997" style="fill: rgb(107, 179, 171); fill-opacity: 1;"/></g></g><g id="shape-395f77cd-2afe-8096-8006-21e9565bf129"><g class="fills" id="fills-395f77cd-2afe-8096-8006-21e9565bf129"><rect rx="0" ry="0" x="138.40063509461095" y="354.9759526419165" transform="matrix(-0.500000, 0.866025, -0.866025, -0.500000, 592.919780, 417.629510)" width="75" height="49.99999999999994" style="fill: rgb(245, 100, 31); fill-opacity: 1;"/></g></g><g id="shape-395f77cd-2afe-8096-8006-21ea5040b08a"><g class="fills" id="fills-395f77cd-2afe-8096-8006-21ea5040b08a"><rect rx="0" ry="0" x="63" y="225" transform="matrix(-1.000000, 0.000000, -0.000000, -1.000000, 201.000000, 500.000000)" width="75.00000000000003" height="49.99999999999994" style="fill: rgb(107, 179, 171); fill-opacity: 1;"/></g></g><g id="shape-395f77cd-2afe-8096-8006-21ea6734b315"><g class="fills" id="fills-395f77cd-2afe-8096-8006-21ea6734b315"><rect rx="0" ry="0" x="135.900635094611" y="95.97595264191642" transform="matrix(-0.500000, -0.866025, 0.866025, -0.500000, 155.332704, 331.633284)" width="75" height="49.99999999999994" style="fill: rgb(245, 100, 31); fill-opacity: 1;"/></g></g><g id="shape-395f77cd-2afe-8096-8006-21ea8f0a00b1"><g class="fills" id="fills-395f77cd-2afe-8096-8006-21ea8f0a00b1"><rect rx="0" ry="0" x="287.90063509461095" y="95.97595264191649" transform="matrix(0.500000, -0.866025, 0.866025, 0.500000, 57.932069, 342.293193)" width="74.99999999999989" height="49.999999999999986" style="fill: rgb(107, 179, 171); fill-opacity: 1;"/></g></g></g></g></g></g></g></g></g></g></g></g></svg>